<svg width="52" height="130" viewBox="0 0 52 130" fill="none" xmlns="http://www.w3.org/2000/svg">
<path d="M35.36 122.056C35.36 123.296 35.148 124.416 34.724 125.416C34.292 126.408 33.68 127.228 32.888 127.876C32.088 128.516 31.14 128.932 30.044 129.124L29.648 126.508C30.704 126.244 31.528 125.692 32.12 124.852C32.704 124.012 32.996 123.032 32.996 121.912C32.996 121.216 32.888 120.576 32.672 119.992C32.448 119.408 32.132 118.94 31.724 118.588C31.308 118.228 30.812 118.048 30.236 118.048C29.924 118.048 29.648 118.104 29.408 118.216C29.168 118.32 28.96 118.468 28.784 118.66C28.6 118.844 28.444 119.072 28.316 119.344C28.18 119.608 28.064 119.9 27.968 120.22L26.66 124.648C26.532 125.08 26.368 125.52 26.168 125.968C25.96 126.416 25.692 126.828 25.364 127.204C25.028 127.572 24.616 127.872 24.128 128.104C23.632 128.336 23.032 128.452 22.328 128.452C21.264 128.452 20.364 128.18 19.628 127.636C18.884 127.084 18.324 126.34 17.948 125.404C17.564 124.468 17.372 123.42 17.372 122.26C17.388 121.092 17.596 120.048 17.996 119.128C18.396 118.2 18.972 117.432 19.724 116.824C20.468 116.208 21.372 115.784 22.436 115.552L22.892 118.24C22.244 118.36 21.688 118.616 21.224 119.008C20.752 119.4 20.392 119.88 20.144 120.448C19.888 121.016 19.756 121.632 19.748 122.296C19.732 122.936 19.828 123.524 20.036 124.06C20.244 124.588 20.536 125.012 20.912 125.332C21.288 125.644 21.72 125.8 22.208 125.8C22.688 125.8 23.076 125.66 23.372 125.38C23.668 125.1 23.904 124.756 24.08 124.348C24.248 123.932 24.388 123.52 24.5 123.112L25.4 119.92C25.512 119.52 25.664 119.068 25.856 118.564C26.04 118.052 26.3 117.56 26.636 117.088C26.972 116.608 27.42 116.212 27.98 115.9C28.532 115.588 29.228 115.432 30.068 115.432C30.94 115.432 31.708 115.608 32.372 115.96C33.028 116.312 33.58 116.796 34.028 117.412C34.468 118.02 34.8 118.724 35.024 119.524C35.248 120.324 35.36 121.168 35.36 122.056ZM35 110.955H17.72V99.9147H20.084V108.447H24.932V101.355H27.296V108.447H32.636V99.9147H35L35 110.955ZM35 95.1128H17.72V84.0728H20.084V92.6048H24.932V85.5128H27.296V92.6048H32.636V84.0728H35V95.1128ZM35 72.5462H17.72V70.2782L30.716 64.0142L17.72 57.7862V55.4942H34.988V57.8702H23.168L35 63.4502V64.5902L23.168 70.1822H35V72.5462ZM35 50.2122H17.72V39.1722H20.084V47.7042H24.932V40.6122H27.296V47.7042H32.636V39.1722H35V50.2122ZM35 34.3703H17.72V31.8263L30.56 23.3183H17.72V20.7743H35V23.3183L22.148 31.8263H35V34.3703ZM35.36 8.617C35.36 9.969 35.084 11.165 34.532 12.205C33.972 13.237 33.192 14.045 32.192 14.629C31.184 15.213 30 15.505 28.64 15.505H17.732L17.72 12.961H28.508C29.244 12.961 29.892 12.837 30.452 12.589C31.012 12.341 31.48 12.009 31.856 11.593C32.232 11.177 32.516 10.713 32.708 10.201C32.9 9.681 32.996 9.153 32.996 8.617C32.996 8.073 32.9 7.545 32.708 7.033C32.508 6.513 32.22 6.045 31.844 5.629C31.468 5.213 31 4.885 30.44 4.645C29.88 4.397 29.236 4.273 28.508 4.273H17.72V1.729H28.64C29.992 1.729 31.172 2.021 32.18 2.605C33.188 3.189 33.972 4.001 34.532 5.041C35.084 6.073 35.36 7.265 35.36 8.617Z" fill="#241A16"/>
</svg>
