<svg width="1365" height="90" viewBox="0 0 1365 90" fill="none" xmlns="http://www.w3.org/2000/svg">
<path d="M0.816 87V85.72L3.376 84.696C5.08267 84.0987 6.192 83.288 6.704 82.264C7.30133 81.24 7.6 79.8747 7.6 78.168V11.352C7.6 9.64533 7.344 8.28 6.832 7.256C6.32 6.23199 5.168 5.42133 3.376 4.824L0.816 3.8V2.52H33.712V3.8L31.152 4.824C29.4453 5.42133 28.2933 6.23199 27.696 7.256C27.184 8.28 26.928 9.64533 26.928 11.352V78.168C26.928 79.8747 27.184 81.24 27.696 82.264C28.2933 83.2027 29.4453 84.0133 31.152 84.696L33.712 85.72V87H0.816ZM51.22 87V85.72L55.444 84.44C56.98 84.0133 58.0893 83.2027 58.772 82.008C59.4547 80.728 59.796 79.2347 59.796 77.528V15.96C58.8573 13.912 58.0893 12.376 57.492 11.352C56.98 10.328 56.3827 9.47466 55.7 8.792C55.0173 8.024 54.0787 7.08533 52.884 5.976L50.708 3.8V2.52H73.364L115.86 60.504V12.248C115.86 10.5413 115.561 9.00533 114.964 7.64C114.452 6.27466 113.343 5.37866 111.636 4.952L107.412 3.8V2.52H125.716V3.8L122.26 4.952C120.724 5.46399 119.785 6.36 119.444 7.64C119.103 8.92 118.932 10.4133 118.932 12.12V87.384H111.764L62.868 20.184V77.528C62.868 79.2347 63.124 80.6853 63.636 81.88C64.148 83.0747 65.2147 83.928 66.836 84.44L70.676 85.72V87H51.22ZM142.171 87V85.72L144.859 84.696C147.59 83.5867 148.955 81.4107 148.955 78.168V11.352C148.955 7.93866 147.59 5.76266 144.859 4.824L142.171 3.8V2.52H175.963C185.008 2.52 192.774 4.22666 199.259 7.64C205.83 10.968 210.864 15.7893 214.363 22.104C217.947 28.3333 219.739 35.8427 219.739 44.632C219.739 53.592 217.819 61.2293 213.979 67.544C210.139 73.8587 204.763 78.68 197.851 82.008C191.024 85.336 182.96 87 173.659 87H142.171ZM168.155 84.44H173.659C179.803 84.44 184.752 83.2453 188.507 80.856C192.262 78.3813 194.992 74.2853 196.699 68.568C198.491 62.7653 199.387 54.8293 199.387 44.76C199.387 34.6907 198.491 26.7973 196.699 21.08C194.992 15.2773 192.304 11.1813 188.635 8.792C184.966 6.31733 180.144 5.07999 174.171 5.07999H168.155V84.44ZM232.286 87V85.72L234.846 84.696C236.553 84.0987 237.662 83.288 238.174 82.264C238.771 81.24 239.07 79.8747 239.07 78.168V11.352C239.07 9.64533 238.814 8.28 238.302 7.256C237.79 6.23199 236.638 5.42133 234.846 4.824L232.286 3.8V2.52H265.182V3.8L262.622 4.824C260.915 5.42133 259.763 6.23199 259.166 7.256C258.654 8.28 258.398 9.64533 258.398 11.352V78.168C258.398 79.8747 258.654 81.24 259.166 82.264C259.763 83.2027 260.915 84.0133 262.622 84.696L265.182 85.72V87H232.286ZM279.234 87V85.72L282.434 84.568C284.141 83.8853 285.463 83.0747 286.402 82.136C287.341 81.112 288.109 79.704 288.706 77.912L315.074 2.26399H325.954L351.938 78.424C352.621 80.3013 353.389 81.752 354.242 82.776C355.095 83.7147 356.418 84.5253 358.21 85.208L359.746 85.72V87H327.234V85.72L329.154 85.08C330.946 84.3973 332.013 83.4587 332.354 82.264C332.781 80.984 332.738 79.4907 332.226 77.784L326.21 59.352H297.794L291.65 77.4C291.053 79.2773 290.839 80.7707 291.01 81.88C291.266 82.9893 292.29 83.8853 294.082 84.568L296.898 85.72V87H279.234ZM298.69 56.792H325.442L312.514 16.984L298.69 56.792ZM375.68 87V85.72L379.904 84.44C381.44 84.0133 382.549 83.2027 383.232 82.008C383.915 80.728 384.256 79.2347 384.256 77.528V15.96C383.317 13.912 382.549 12.376 381.952 11.352C381.44 10.328 380.843 9.47466 380.16 8.792C379.477 8.024 378.539 7.08533 377.344 5.976L375.168 3.8V2.52H397.824L440.32 60.504V12.248C440.32 10.5413 440.021 9.00533 439.424 7.64C438.912 6.27466 437.803 5.37866 436.096 4.952L431.872 3.8V2.52H450.176V3.8L446.72 4.952C445.184 5.46399 444.245 6.36 443.904 7.64C443.563 8.92 443.392 10.4133 443.392 12.12V87.384H436.224L387.328 20.184V77.528C387.328 79.2347 387.584 80.6853 388.096 81.88C388.608 83.0747 389.675 83.928 391.296 84.44L395.136 85.72V87H375.68ZM505.996 87V85.72L508.684 84.824C510.391 84.2267 511.5 83.4587 512.012 82.52C512.524 81.496 512.78 80.088 512.78 78.296V11.352C512.78 9.64533 512.524 8.32266 512.012 7.384C511.585 6.36 510.561 5.54933 508.94 4.952L505.996 3.8V2.52H542.604C552.673 2.52 560.396 4.44 565.772 8.28C571.148 12.0347 573.836 17.2827 573.836 24.024C573.836 27.7787 572.428 31.5333 569.612 35.288C566.796 39.0427 562.359 41.944 556.3 43.992L574.092 79.32C574.86 80.7707 575.713 81.9653 576.652 82.904C577.676 83.7573 578.999 84.5253 580.62 85.208L582.284 85.848V87H559.372L540.428 46.68H531.724V78.296C531.724 79.9173 531.98 81.24 532.492 82.264C533.004 83.288 534.071 84.056 535.692 84.568L538.764 85.72V87H505.996ZM531.724 44.12H537.868C544.012 44.12 548.449 42.4987 551.18 39.256C553.911 35.928 555.276 31.0213 555.276 24.536C555.276 17.9653 553.996 13.1013 551.436 9.94399C548.876 6.70133 544.567 5.07999 538.508 5.07999H531.724V44.12ZM596.611 87V85.72L599.555 84.568C601.006 83.9707 601.987 83.2027 602.499 82.264C603.096 81.24 603.395 79.8747 603.395 78.168V11.352C603.395 9.64533 603.139 8.32266 602.627 7.384C602.2 6.36 601.176 5.54933 599.555 4.952L596.611 3.8V2.52H657.923L658.691 22.232H657.411L651.907 10.2C651.139 8.664 650.328 7.42666 649.475 6.488C648.622 5.54933 647.342 5.07999 645.635 5.07999H622.595V42.072H636.291C637.998 42.072 639.278 41.6453 640.131 40.792C641.07 39.8533 641.88 38.616 642.563 37.08L645.123 31.96H646.403V55H645.123L642.563 49.624C641.795 48.088 640.984 46.8933 640.131 46.04C639.278 45.1013 637.998 44.632 636.291 44.632H622.595V84.44H648.451C650.158 84.44 651.48 84.0133 652.419 83.16C653.358 82.2213 654.126 80.9413 654.723 79.32L659.971 67.288H661.251L660.483 87H596.611ZM705.371 89.304C700.678 89.304 695.899 88.7067 691.035 87.512C686.171 86.4027 682.118 84.9093 678.875 83.032L679.515 65.624H680.795L684.763 73.944C685.958 76.3333 687.238 78.4667 688.603 80.344C689.968 82.136 691.846 83.544 694.235 84.568C695.942 85.4213 697.563 86.0187 699.099 86.36C700.72 86.616 702.512 86.744 704.475 86.744C709.68 86.744 713.776 85.336 716.763 82.52C719.835 79.704 721.371 76.0773 721.371 71.64C721.371 67.4587 720.347 64.216 718.299 61.912C716.251 59.5227 712.966 57.2187 708.443 55L703.195 52.696C695.856 49.4533 690.096 45.7413 685.915 41.56C681.819 37.2933 679.771 31.6613 679.771 24.664C679.771 19.6293 681.051 15.2773 683.611 11.608C686.256 7.93866 689.883 5.12266 694.491 3.16C699.184 1.19733 704.646 0.215996 710.875 0.215996C715.398 0.215996 719.664 0.813329 723.675 2.008C727.771 3.20266 731.312 4.82399 734.299 6.87199L733.531 22.232H732.251L727.003 12.632C725.552 9.64533 724.102 7.55466 722.651 6.35999C721.2 5.07999 719.536 4.184 717.659 3.672C716.55 3.33066 715.526 3.11733 714.587 3.032C713.648 2.86133 712.454 2.77599 711.003 2.77599C706.651 2.77599 702.982 4.05599 699.995 6.616C697.008 9.09066 695.515 12.4613 695.515 16.728C695.515 21.08 696.667 24.5787 698.971 27.224C701.275 29.784 704.646 32.088 709.083 34.136L714.971 36.696C723.163 40.28 729.051 44.12 732.635 48.216C736.219 52.2267 738.011 57.432 738.011 63.832C738.011 71.3413 735.152 77.4853 729.435 82.264C723.803 86.9573 715.782 89.304 705.371 89.304ZM769.993 87V85.72L775.241 84.44C778.74 83.672 780.489 81.5387 780.489 78.04V5.07999H769.609C766.452 5.07999 764.19 5.93333 762.825 7.64C761.46 9.26133 760.009 11.5227 758.473 14.424L753.865 23.384H752.585L753.225 2.52H827.081L827.593 23.384H826.313L821.705 14.424C820.254 11.5227 818.846 9.26133 817.481 7.64C816.116 5.93333 813.854 5.07999 810.697 5.07999H799.817V78.04C799.817 81.5387 801.566 83.672 805.065 84.44L810.313 85.72V87H769.993ZM831.789 87V85.72L834.989 84.568C836.696 83.8853 838.018 83.0747 838.957 82.136C839.896 81.112 840.664 79.704 841.261 77.912L867.629 2.26399H878.509L904.493 78.424C905.176 80.3013 905.944 81.752 906.797 82.776C907.65 83.7147 908.973 84.5253 910.765 85.208L912.301 85.72V87H879.789V85.72L881.709 85.08C883.501 84.3973 884.568 83.4587 884.909 82.264C885.336 80.984 885.293 79.4907 884.781 77.784L878.765 59.352H850.349L844.205 77.4C843.608 79.2773 843.394 80.7707 843.565 81.88C843.821 82.9893 844.845 83.8853 846.637 84.568L849.453 85.72V87H831.789ZM851.245 56.792H877.997L865.069 16.984L851.245 56.792ZM960.147 89.304C953.662 89.304 947.902 88.152 942.867 85.848C937.918 83.544 934.035 79.9173 931.219 74.968C928.488 69.9333 927.123 63.32 927.123 55.128V10.968C927.123 7.72533 925.459 5.592 922.131 4.56799L919.315 3.8V2.52H954.771V3.8L951.059 4.824C947.902 5.592 946.323 7.72533 946.323 11.224V58.456C946.323 66.392 947.987 72.28 951.315 76.12C954.643 79.8747 959.422 81.752 965.651 81.752C972.136 81.752 977.256 79.7467 981.011 75.736C984.851 71.7253 986.771 66.0507 986.771 58.712V11.736C986.771 10.0293 986.472 8.536 985.875 7.256C985.363 5.89066 984.254 4.99466 982.547 4.56799L979.347 3.8V2.52H997.267V3.8L993.811 4.696C992.19 5.03733 991.123 5.84799 990.611 7.128C990.099 8.408 989.843 9.90133 989.843 11.608V58.456C989.843 64.6853 988.606 70.1467 986.131 74.84C983.656 79.448 980.2 83.032 975.763 85.592C971.326 88.0667 966.12 89.304 960.147 89.304ZM1010.81 87V85.72L1013.5 84.824C1015.21 84.2267 1016.31 83.4587 1016.83 82.52C1017.34 81.496 1017.59 80.088 1017.59 78.296V11.352C1017.59 9.64533 1017.34 8.32266 1016.83 7.384C1016.4 6.36 1015.38 5.54933 1013.75 4.952L1010.81 3.8V2.52H1047.42C1057.49 2.52 1065.21 4.44 1070.59 8.28C1075.96 12.0347 1078.65 17.2827 1078.65 24.024C1078.65 27.7787 1077.24 31.5333 1074.43 35.288C1071.61 39.0427 1067.17 41.944 1061.11 43.992L1078.91 79.32C1079.67 80.7707 1080.53 81.9653 1081.47 82.904C1082.49 83.7573 1083.81 84.5253 1085.43 85.208L1087.1 85.848V87H1064.19L1045.24 46.68H1036.54V78.296C1036.54 79.9173 1036.79 81.24 1037.31 82.264C1037.82 83.288 1038.89 84.056 1040.51 84.568L1043.58 85.72V87H1010.81ZM1036.54 44.12H1042.68C1048.83 44.12 1053.26 42.4987 1055.99 39.256C1058.73 35.928 1060.09 31.0213 1060.09 24.536C1060.09 17.9653 1058.81 13.1013 1056.25 9.94399C1053.69 6.70133 1049.38 5.07999 1043.32 5.07999H1036.54V44.12ZM1100.88 87V85.72L1104.08 84.568C1105.79 83.8853 1107.11 83.0747 1108.05 82.136C1108.99 81.112 1109.76 79.704 1110.36 77.912L1136.72 2.26399H1147.6L1173.59 78.424C1174.27 80.3013 1175.04 81.752 1175.89 82.776C1176.75 83.7147 1178.07 84.5253 1179.86 85.208L1181.4 85.72V87H1148.88V85.72L1150.8 85.08C1152.6 84.3973 1153.66 83.4587 1154 82.264C1154.43 80.984 1154.39 79.4907 1153.88 77.784L1147.86 59.352H1119.44L1113.3 77.4C1112.7 79.2773 1112.49 80.7707 1112.66 81.88C1112.92 82.9893 1113.94 83.8853 1115.73 84.568L1118.55 85.72V87H1100.88ZM1120.34 56.792H1147.09L1134.16 16.984L1120.34 56.792ZM1197.33 87V85.72L1201.55 84.44C1203.09 84.0133 1204.2 83.2027 1204.88 82.008C1205.56 80.728 1205.91 79.2347 1205.91 77.528V15.96C1204.97 13.912 1204.2 12.376 1203.6 11.352C1203.09 10.328 1202.49 9.47466 1201.81 8.792C1201.13 8.024 1200.19 7.08533 1198.99 5.976L1196.82 3.8V2.52H1219.47L1261.97 60.504V12.248C1261.97 10.5413 1261.67 9.00533 1261.07 7.64C1260.56 6.27466 1259.45 5.37866 1257.75 4.952L1253.52 3.8V2.52H1271.83V3.8L1268.37 4.952C1266.83 5.46399 1265.9 6.36 1265.55 7.64C1265.21 8.92 1265.04 10.4133 1265.04 12.12V87.384H1257.87L1208.98 20.184V77.528C1208.98 79.2347 1209.23 80.6853 1209.75 81.88C1210.26 83.0747 1211.32 83.928 1212.95 84.44L1216.79 85.72V87H1197.33ZM1306.68 87V85.72L1311.93 84.44C1315.43 83.672 1317.18 81.5387 1317.18 78.04V5.07999H1306.3C1303.14 5.07999 1300.88 5.93333 1299.51 7.64C1298.15 9.26133 1296.7 11.5227 1295.16 14.424L1290.55 23.384H1289.27L1289.91 2.52H1363.77L1364.28 23.384H1363L1358.39 14.424C1356.94 11.5227 1355.54 9.26133 1354.17 7.64C1352.81 5.93333 1350.54 5.07999 1347.39 5.07999H1336.51V78.04C1336.51 81.5387 1338.26 83.672 1341.75 84.44L1347 85.72V87H1306.68Z" fill="#7F3828"/>
</svg>
